<svg width="24" height="24" viewBox="0 0 24 24" fill="none" xmlns="http://www.w3.org/2000/svg">
<path d="M21.7216 21.0019L19.7221 15.0056H13.0029C12.7377 15.0056 12.4834 14.9003 12.2959 14.7129C12.1085 14.5255 12.0031 14.2713 12.0031 14.0062V13.0069H19.0013V11.0081H12.0031V7.86807C12.9455 7.62483 13.7669 7.04636 14.3131 6.24108C14.8594 5.4358 15.0931 4.45901 14.9705 3.4938C14.8478 2.52859 14.3772 1.64123 13.6469 0.998038C12.9166 0.354851 11.9767 0 11.0034 0C10.0301 0 9.09016 0.354851 8.35985 0.998038C7.62953 1.64123 7.15895 2.52859 7.0363 3.4938C6.91366 4.45901 7.14738 5.4358 7.69365 6.24108C8.23992 7.04636 9.06124 7.62483 10.0036 7.86807V14.0062C10.0036 14.8014 10.3196 15.564 10.8821 16.1262C11.4446 16.6885 12.2074 17.0044 13.0029 17.0044H13.9126C13.722 18.1319 13.2128 19.1813 12.4451 20.0291C11.6775 20.8768 10.6833 21.4875 9.5799 21.789C8.47649 22.0905 7.30984 22.0704 6.2175 21.731C5.12516 21.3915 4.15269 20.747 3.41475 19.8732C2.67681 18.9995 2.20417 17.9331 2.05257 16.7997C1.90097 15.6663 2.07672 14.5132 2.5591 13.4764C3.04149 12.4395 3.81039 11.5622 4.77514 10.9478C5.7399 10.3334 6.86027 10.0076 8.00417 10.0087V8.00998C6.46473 8.00878 4.95765 8.45173 3.66383 9.28565C2.37002 10.1196 1.34446 11.309 0.710248 12.7113C0.0760399 14.1135 -0.139862 15.6689 0.0884588 17.1908C0.31678 18.7126 0.97962 20.1363 1.99742 21.2908C3.01521 22.4454 4.34471 23.2818 5.82632 23.6996C7.30793 24.1175 8.87869 24.099 10.3501 23.6464C11.8214 23.1939 13.1309 22.3264 14.1212 21.1482C15.1115 19.97 15.7407 18.5312 15.9331 17.0044H18.2805L20.28 23.0006H24V21.0019H21.7216ZM9.00391 4.01248C9.00391 3.61716 9.12118 3.23072 9.34088 2.90203C9.56059 2.57334 9.87286 2.31715 10.2382 2.16587C10.6036 2.01459 11.0056 1.97501 11.3935 2.05213C11.7813 2.12925 12.1376 2.31962 12.4172 2.59915C12.6969 2.87868 12.8873 3.23482 12.9644 3.62254C13.0416 4.01026 13.002 4.41214 12.8507 4.77737C12.6993 5.14259 12.4431 5.45475 12.1142 5.67438C11.7854 5.89401 11.3988 6.01123 11.0034 6.01123C10.4731 6.01123 9.96452 5.80065 9.58954 5.42581C9.21457 5.05097 9.00391 4.54258 9.00391 4.01248Z" fill="#0C4BA0"/>
</svg>
