<svg width="40" height="40" viewBox="0 0 40 40" fill="none" xmlns="http://www.w3.org/2000/svg">
<rect width="40" height="40" rx="10" fill="#0C4BA0"/>
<path fill-rule="evenodd" clip-rule="evenodd" d="M0 6.25C0 2.79822 2.79822 0 6.25 0H33.75C37.2018 0 40 2.79822 40 6.25V33.75C40 37.2018 37.2018 40 33.75 40H6.25C2.79822 40 0 37.2018 0 33.75V6.25ZM11.4 11.4C10 12.8133 10 15.0733 10 19.6V20.4C10 24.92 10 27.18 11.4 28.6C12.8133 30 15.0733 30 19.6 30H20.4C24.92 30 27.18 30 28.6 28.6C30 27.1867 30 24.9267 30 20.4V19.6C30 15.08 30 12.82 28.6 11.4C27.1867 10 24.9267 10 20.4 10H19.6C15.08 10 12.82 10 11.4 11.4Z" fill="white"/>
<path d="M20.64 24.4066C16.08 24.4066 13.48 21.2866 13.3733 16.0866H15.6667C15.74 19.9 17.42 21.5133 18.7533 21.8466V16.0866H20.9067V19.3733C22.22 19.2333 23.6067 17.7333 24.0733 16.08H26.22C26.045 16.9358 25.6953 17.7464 25.1929 18.461C24.6905 19.1756 24.0461 19.779 23.3 20.2333C24.1326 20.6477 24.8679 21.2339 25.4574 21.9533C26.047 22.6727 26.4773 23.5088 26.72 24.4066H24.3533C23.8467 22.8266 22.58 21.6 20.9067 21.4333V24.4066H20.64Z" fill="white"/>
</svg>
